<svg xmlns="http://www.w3.org/2000/svg" xmlns:xlink="http://www.w3.org/1999/xlink" width="793" zoomAndPan="magnify" viewBox="0 0 595.5 842.249979" height="1122" preserveAspectRatio="xMidYMid meet" version="1.0"><defs><g/><clipPath id="68ac52be10"><path d="M 332 308 L 535.664062 308 L 535.664062 600 L 332 600 Z M 332 308 " clip-rule="nonzero"/></clipPath><clipPath id="88a4432fd7"><path d="M 65.4375 226 L 152 226 L 152 313 L 65.4375 313 Z M 65.4375 226 " clip-rule="nonzero"/></clipPath><clipPath id="aa6a5b6078"><path d="M 110 157.390625 L 491 157.390625 L 491 647 L 110 647 Z M 110 157.390625 " clip-rule="nonzero"/></clipPath></defs><path fill="#85c125" d="M 471.558594 451.59375 C 471.605469 452.636719 471.578125 453.683594 471.472656 454.734375 C 471.371094 455.785156 471.1875 456.835938 470.933594 457.890625 C 470.675781 458.941406 470.339844 459.996094 469.929688 461.050781 C 469.519531 462.105469 469.035156 463.160156 468.472656 464.210938 C 467.914062 465.261719 467.277344 466.3125 466.566406 467.363281 C 465.855469 468.410156 465.070312 469.457031 464.210938 470.496094 C 463.351562 471.539062 462.417969 472.574219 461.410156 473.609375 C 460.40625 474.640625 459.328125 475.667969 458.179688 476.6875 C 457.027344 477.707031 455.808594 478.722656 454.519531 479.726562 C 453.226562 480.734375 451.867188 481.734375 450.4375 482.722656 C 449.011719 483.710938 447.515625 484.691406 445.949219 485.664062 C 444.386719 486.632812 442.757812 487.59375 441.066406 488.542969 C 439.371094 489.492188 437.613281 490.429688 435.792969 491.355469 C 433.972656 492.28125 432.089844 493.195312 430.148438 494.09375 C 428.203125 494.992188 426.203125 495.878906 424.140625 496.75 C 422.082031 497.625 419.964844 498.480469 417.792969 499.320312 C 415.617188 500.164062 413.390625 500.988281 411.109375 501.796875 C 408.832031 502.609375 406.5 503.398438 404.117188 504.175781 C 401.734375 504.949219 399.304688 505.707031 396.824219 506.449219 C 394.347656 507.1875 391.820312 507.90625 389.253906 508.609375 C 386.683594 509.308594 384.074219 509.992188 381.421875 510.65625 C 378.765625 511.316406 376.074219 511.957031 373.34375 512.578125 C 370.613281 513.199219 367.847656 513.800781 365.046875 514.378906 C 362.246094 514.957031 359.410156 515.515625 356.546875 516.046875 C 353.679688 516.582031 350.785156 517.09375 347.863281 517.585938 C 344.9375 518.074219 341.992188 518.539062 339.015625 518.984375 C 336.042969 519.425781 333.046875 519.84375 330.03125 520.238281 C 327.015625 520.636719 323.980469 521.007812 320.925781 521.355469 C 317.875 521.699219 314.808594 522.023438 311.726562 522.320312 C 308.644531 522.617188 305.554688 522.890625 302.449219 523.140625 C 299.347656 523.386719 296.238281 523.609375 293.121094 523.808594 C 290.007812 524.003906 286.886719 524.175781 283.765625 524.320312 C 280.644531 524.46875 277.519531 524.589844 274.402344 524.683594 C 271.28125 524.777344 268.164062 524.847656 265.050781 524.890625 C 261.9375 524.933594 258.835938 524.949219 255.738281 524.941406 C 252.644531 524.933594 249.558594 524.898438 246.488281 524.835938 C 243.417969 524.777344 240.359375 524.691406 237.320312 524.578125 C 234.28125 524.46875 231.257812 524.328125 228.257812 524.167969 C 225.253906 524.003906 222.273438 523.8125 219.320312 523.601562 C 216.363281 523.386719 213.433594 523.148438 210.53125 522.882812 C 207.625 522.617188 204.753906 522.328125 201.910156 522.011719 C 199.066406 521.699219 196.257812 521.359375 193.480469 520.996094 C 190.703125 520.632812 187.964844 520.246094 185.261719 519.835938 C 182.558594 519.421875 179.894531 518.988281 177.269531 518.53125 C 174.648438 518.070312 172.066406 517.589844 169.53125 517.085938 C 166.992188 516.582031 164.503906 516.054688 162.058594 515.503906 C 159.613281 514.953125 157.21875 514.382812 154.871094 513.789062 C 152.527344 513.199219 150.230469 512.582031 147.988281 511.949219 C 145.746094 511.3125 143.558594 510.65625 141.425781 509.984375 C 139.292969 509.308594 137.21875 508.613281 135.199219 507.898438 C 133.179688 507.183594 131.222656 506.449219 129.320312 505.699219 C 127.421875 504.945312 125.585938 504.175781 123.8125 503.390625 C 122.035156 502.605469 120.324219 501.800781 118.675781 500.980469 C 117.03125 500.160156 115.449219 499.324219 113.933594 498.472656 C 112.417969 497.617188 110.972656 496.753906 109.59375 495.871094 C 108.214844 494.988281 106.902344 494.09375 105.664062 493.183594 C 104.425781 492.277344 103.253906 491.355469 102.15625 490.421875 C 101.058594 489.488281 100.035156 488.542969 99.082031 487.585938 C 98.128906 486.628906 97.25 485.660156 96.441406 484.683594 C 95.636719 483.707031 94.90625 482.71875 94.246094 481.726562 C 93.589844 480.730469 93.007812 479.726562 92.503906 478.714844 C 91.996094 477.703125 91.566406 476.683594 91.210938 475.660156 C 90.855469 474.636719 90.578125 473.605469 90.375 472.570312 C 90.171875 471.535156 90.046875 470.492188 90 469.449219 C 89.949219 468.40625 89.976562 467.359375 90.082031 466.308594 C 90.1875 465.257812 90.367188 464.207031 90.625 463.152344 C 90.882812 462.101562 91.214844 461.046875 91.625 459.992188 C 92.035156 458.9375 92.519531 457.882812 93.082031 456.832031 C 93.644531 455.777344 94.28125 454.726562 94.992188 453.679688 C 95.703125 452.632812 96.488281 451.585938 97.347656 450.542969 C 98.207031 449.503906 99.140625 448.464844 100.144531 447.433594 C 101.152344 446.402344 102.226562 445.375 103.378906 444.355469 C 104.527344 443.335938 105.746094 442.320312 107.039062 441.3125 C 108.328125 440.308594 109.6875 439.308594 111.117188 438.320312 C 112.546875 437.332031 114.042969 436.351562 115.605469 435.378906 C 117.167969 434.410156 118.796875 433.449219 120.492188 432.5 C 122.1875 431.550781 123.941406 430.613281 125.761719 429.6875 C 127.585938 428.761719 129.464844 427.847656 131.410156 426.949219 C 133.351562 426.046875 135.355469 425.164062 137.414062 424.289062 C 139.476562 423.417969 141.589844 422.5625 143.765625 421.722656 C 145.9375 420.878906 148.164062 420.054688 150.445312 419.242188 C 152.726562 418.433594 155.058594 417.640625 157.441406 416.867188 C 159.824219 416.089844 162.253906 415.335938 164.730469 414.59375 C 167.210938 413.855469 169.734375 413.136719 172.304688 412.433594 C 174.871094 411.730469 177.484375 411.050781 180.136719 410.386719 C 182.789062 409.726562 185.480469 409.085938 188.210938 408.464844 C 190.941406 407.84375 193.707031 407.242188 196.507812 406.664062 C 199.3125 406.085938 202.144531 405.527344 205.011719 404.992188 C 207.875 404.460938 210.769531 403.949219 213.695312 403.457031 C 216.617188 402.96875 219.566406 402.503906 222.539062 402.058594 C 225.511719 401.617188 228.507812 401.199219 231.523438 400.800781 C 234.542969 400.40625 237.578125 400.035156 240.628906 399.6875 C 243.683594 399.339844 246.75 399.019531 249.832031 398.722656 C 252.910156 398.421875 256.003906 398.152344 259.105469 397.902344 C 262.207031 397.65625 265.316406 397.433594 268.433594 397.234375 C 271.550781 397.039062 274.667969 396.867188 277.792969 396.71875 C 280.914062 396.574219 284.035156 396.453125 287.15625 396.359375 C 290.277344 396.265625 293.394531 396.195312 296.503906 396.152344 C 299.617188 396.109375 302.722656 396.09375 305.816406 396.101562 C 308.914062 396.109375 311.996094 396.144531 315.066406 396.203125 C 318.140625 396.265625 321.195312 396.351562 324.238281 396.464844 C 327.277344 396.574219 330.296875 396.710938 333.300781 396.875 C 336.300781 397.039062 339.28125 397.226562 342.238281 397.441406 C 345.195312 397.65625 348.125 397.894531 351.027344 398.160156 C 353.929688 398.425781 356.804688 398.714844 359.648438 399.027344 C 362.488281 399.34375 365.300781 399.683594 368.078125 400.046875 C 370.851562 400.410156 373.59375 400.796875 376.296875 401.207031 C 379 401.617188 381.664062 402.054688 384.285156 402.511719 C 386.910156 402.972656 389.488281 403.453125 392.027344 403.957031 C 394.5625 404.460938 397.054688 404.988281 399.5 405.539062 C 401.941406 406.089844 404.339844 406.660156 406.683594 407.253906 C 409.03125 407.84375 411.324219 408.457031 413.566406 409.09375 C 415.808594 409.730469 417.996094 410.382812 420.128906 411.058594 C 422.261719 411.734375 424.339844 412.429688 426.359375 413.144531 C 428.375 413.859375 430.335938 414.59375 432.234375 415.34375 C 434.132812 416.09375 435.96875 416.863281 437.746094 417.652344 C 439.519531 418.4375 441.230469 419.242188 442.878906 420.0625 C 444.527344 420.882812 446.109375 421.71875 447.621094 422.570312 C 449.136719 423.421875 450.585938 424.289062 451.964844 425.171875 C 453.34375 426.054688 454.652344 426.949219 455.890625 427.855469 C 457.132812 428.765625 458.300781 429.6875 459.398438 430.621094 C 460.496094 431.554688 461.523438 432.5 462.476562 433.457031 C 463.429688 434.414062 464.308594 435.378906 465.113281 436.359375 C 465.921875 437.335938 466.652344 438.320312 467.308594 439.316406 C 467.964844 440.3125 468.546875 441.316406 469.054688 442.328125 C 469.5625 443.339844 469.992188 444.355469 470.347656 445.382812 C 470.699219 446.40625 470.980469 447.4375 471.179688 448.472656 C 471.382812 449.507812 471.507812 450.546875 471.558594 451.59375 Z M 471.558594 451.59375 " fill-opacity="1" fill-rule="nonzero"/><g clip-path="url(#68ac52be10)"><path fill="#d2ed00" d="M 450.046875 599.460938 L 417.777344 599.460938 C 370.359375 599.460938 332.160156 560.613281 332.160156 513.863281 L 332.160156 394.023438 C 332.160156 346.613281 371.019531 308.421875 417.777344 308.421875 L 450.046875 308.421875 C 497.464844 308.421875 535.664062 347.273438 535.664062 394.023438 L 535.664062 513.863281 C 535.664062 560.613281 496.808594 599.460938 450.046875 599.460938 Z M 450.046875 599.460938 " fill-opacity="1" fill-rule="nonzero"/></g><g clip-path="url(#88a4432fd7)"><path fill="#d0c52d" d="M 151.050781 269.574219 C 151.050781 270.976562 150.984375 272.375 150.847656 273.769531 C 150.707031 275.164062 150.503906 276.550781 150.230469 277.925781 C 149.957031 279.300781 149.617188 280.65625 149.210938 282 C 148.800781 283.339844 148.332031 284.65625 147.792969 285.953125 C 147.257812 287.246094 146.660156 288.511719 145.996094 289.75 C 145.335938 290.984375 144.617188 292.1875 143.839844 293.351562 C 143.058594 294.519531 142.226562 295.640625 141.335938 296.726562 C 140.445312 297.808594 139.503906 298.847656 138.515625 299.839844 C 137.523438 300.828125 136.484375 301.769531 135.402344 302.660156 C 134.316406 303.546875 133.191406 304.382812 132.027344 305.160156 C 130.863281 305.941406 129.660156 306.660156 128.425781 307.320312 C 127.1875 307.980469 125.921875 308.578125 124.625 309.117188 C 123.332031 309.652344 122.011719 310.125 120.671875 310.53125 C 119.328125 310.9375 117.972656 311.277344 116.597656 311.550781 C 115.222656 311.824219 113.835938 312.03125 112.441406 312.167969 C 111.046875 312.304688 109.648438 312.375 108.246094 312.375 C 106.84375 312.375 105.445312 312.304688 104.046875 312.167969 C 102.652344 312.03125 101.269531 311.824219 99.894531 311.550781 C 98.519531 311.277344 97.160156 310.9375 95.816406 310.53125 C 94.476562 310.125 93.15625 309.652344 91.863281 309.117188 C 90.566406 308.578125 89.300781 307.980469 88.066406 307.320312 C 86.828125 306.660156 85.628906 305.941406 84.460938 305.160156 C 83.296875 304.382812 82.171875 303.546875 81.085938 302.660156 C 80.003906 301.769531 78.964844 300.828125 77.976562 299.839844 C 76.984375 298.847656 76.042969 297.808594 75.152344 296.726562 C 74.265625 295.640625 73.429688 294.519531 72.652344 293.351562 C 71.871094 292.1875 71.152344 290.984375 70.492188 289.75 C 69.832031 288.511719 69.230469 287.246094 68.695312 285.953125 C 68.160156 284.65625 67.6875 283.339844 67.28125 282 C 66.875 280.65625 66.53125 279.300781 66.257812 277.925781 C 65.984375 276.550781 65.78125 275.164062 65.644531 273.769531 C 65.503906 272.375 65.4375 270.976562 65.4375 269.574219 C 65.4375 268.171875 65.503906 266.773438 65.644531 265.378906 C 65.78125 263.984375 65.984375 262.597656 66.257812 261.222656 C 66.53125 259.847656 66.875 258.492188 67.28125 257.148438 C 67.6875 255.808594 68.160156 254.492188 68.695312 253.195312 C 69.230469 251.902344 69.832031 250.632812 70.492188 249.398438 C 71.152344 248.164062 71.871094 246.960938 72.652344 245.796875 C 73.429688 244.628906 74.265625 243.507812 75.152344 242.421875 C 76.042969 241.339844 76.984375 240.300781 77.976562 239.308594 C 78.964844 238.320312 80.003906 237.378906 81.085938 236.488281 C 82.171875 235.601562 83.296875 234.765625 84.460938 233.988281 C 85.628906 233.207031 86.828125 232.488281 88.066406 231.828125 C 89.300781 231.167969 90.566406 230.570312 91.863281 230.03125 C 93.15625 229.496094 94.476562 229.023438 95.816406 228.617188 C 97.160156 228.210938 98.519531 227.871094 99.894531 227.597656 C 101.269531 227.324219 102.652344 227.117188 104.046875 226.980469 C 105.445312 226.84375 106.84375 226.773438 108.246094 226.773438 C 109.648438 226.773438 111.046875 226.84375 112.441406 226.980469 C 113.835938 227.117188 115.222656 227.324219 116.597656 227.597656 C 117.972656 227.871094 119.328125 228.210938 120.671875 228.617188 C 122.011719 229.023438 123.332031 229.496094 124.625 230.03125 C 125.921875 230.570312 127.1875 231.167969 128.425781 231.828125 C 129.660156 232.488281 130.863281 233.207031 132.027344 233.988281 C 133.191406 234.765625 134.316406 235.601562 135.402344 236.488281 C 136.484375 237.378906 137.523438 238.320312 138.515625 239.308594 C 139.503906 240.300781 140.445312 241.339844 141.335938 242.421875 C 142.226562 243.507812 143.058594 244.628906 143.839844 245.796875 C 144.617188 246.960938 145.335938 248.164062 145.996094 249.398438 C 146.660156 250.636719 147.257812 251.902344 147.792969 253.195312 C 148.332031 254.492188 148.800781 255.808594 149.210938 257.148438 C 149.617188 258.492188 149.957031 259.847656 150.230469 261.222656 C 150.503906 262.597656 150.707031 263.984375 150.847656 265.378906 C 150.984375 266.773438 151.050781 268.171875 151.050781 269.574219 Z M 151.050781 269.574219 " fill-opacity="1" fill-rule="nonzero"/></g><path fill="#d0c52d" d="M 201.761719 226.773438 C 201.761719 227.507812 201.726562 228.238281 201.65625 228.96875 C 201.582031 229.699219 201.476562 230.421875 201.332031 231.140625 C 201.191406 231.859375 201.011719 232.570312 200.796875 233.273438 C 200.585938 233.976562 200.339844 234.664062 200.058594 235.339844 C 199.777344 236.019531 199.464844 236.679688 199.117188 237.328125 C 198.773438 237.972656 198.398438 238.601562 197.988281 239.210938 C 197.582031 239.820312 197.144531 240.410156 196.679688 240.976562 C 196.214844 241.542969 195.722656 242.085938 195.203125 242.605469 C 194.6875 243.125 194.144531 243.613281 193.578125 244.082031 C 193.007812 244.546875 192.421875 244.980469 191.8125 245.390625 C 191.203125 245.796875 190.574219 246.171875 189.925781 246.519531 C 189.28125 246.863281 188.617188 247.175781 187.941406 247.457031 C 187.261719 247.738281 186.574219 247.984375 185.871094 248.199219 C 185.167969 248.410156 184.457031 248.589844 183.738281 248.730469 C 183.019531 248.875 182.296875 248.980469 181.566406 249.054688 C 180.835938 249.125 180.105469 249.160156 179.371094 249.160156 C 178.636719 249.160156 177.90625 249.125 177.175781 249.054688 C 176.445312 248.980469 175.722656 248.875 175.003906 248.730469 C 174.285156 248.589844 173.574219 248.410156 172.871094 248.199219 C 172.167969 247.984375 171.480469 247.738281 170.800781 247.457031 C 170.125 247.175781 169.460938 246.863281 168.816406 246.519531 C 168.167969 246.171875 167.539062 245.796875 166.929688 245.390625 C 166.320312 244.980469 165.734375 244.546875 165.167969 244.082031 C 164.597656 243.613281 164.054688 243.125 163.539062 242.605469 C 163.019531 242.085938 162.527344 241.542969 162.0625 240.976562 C 161.597656 240.410156 161.160156 239.820312 160.753906 239.210938 C 160.347656 238.601562 159.96875 237.972656 159.625 237.328125 C 159.277344 236.679688 158.964844 236.019531 158.683594 235.339844 C 158.402344 234.664062 158.15625 233.976562 157.945312 233.273438 C 157.730469 232.570312 157.554688 231.859375 157.410156 231.140625 C 157.265625 230.421875 157.160156 229.699219 157.085938 228.96875 C 157.015625 228.238281 156.980469 227.507812 156.980469 226.773438 C 156.980469 226.042969 157.015625 225.308594 157.085938 224.582031 C 157.160156 223.851562 157.265625 223.125 157.410156 222.40625 C 157.554688 221.6875 157.730469 220.976562 157.945312 220.277344 C 158.15625 219.574219 158.402344 218.882812 158.683594 218.207031 C 158.964844 217.53125 159.277344 216.867188 159.625 216.222656 C 159.96875 215.574219 160.347656 214.945312 160.753906 214.335938 C 161.160156 213.726562 161.597656 213.140625 162.0625 212.570312 C 162.527344 212.003906 163.019531 211.460938 163.539062 210.945312 C 164.054688 210.425781 164.597656 209.933594 165.167969 209.46875 C 165.734375 209.003906 166.320312 208.566406 166.929688 208.160156 C 167.539062 207.753906 168.167969 207.375 168.816406 207.03125 C 169.460938 206.683594 170.125 206.371094 170.800781 206.089844 C 171.480469 205.808594 172.167969 205.5625 172.871094 205.351562 C 173.574219 205.136719 174.285156 204.960938 175.003906 204.816406 C 175.722656 204.675781 176.445312 204.566406 177.175781 204.496094 C 177.90625 204.421875 178.636719 204.386719 179.371094 204.386719 C 180.105469 204.386719 180.835938 204.421875 181.566406 204.496094 C 182.296875 204.566406 183.019531 204.675781 183.738281 204.816406 C 184.457031 204.960938 185.167969 205.136719 185.871094 205.351562 C 186.574219 205.5625 187.261719 205.808594 187.941406 206.089844 C 188.617188 206.371094 189.28125 206.683594 189.925781 207.03125 C 190.574219 207.375 191.203125 207.753906 191.8125 208.160156 C 192.421875 208.566406 193.007812 209.003906 193.578125 209.46875 C 194.144531 209.933594 194.6875 210.425781 195.203125 210.945312 C 195.722656 211.460938 196.214844 212.003906 196.679688 212.570312 C 197.144531 213.140625 197.582031 213.726562 197.988281 214.335938 C 198.398438 214.945312 198.773438 215.574219 199.117188 216.222656 C 199.464844 216.867188 199.777344 217.53125 200.058594 218.207031 C 200.339844 218.882812 200.585938 219.574219 200.796875 220.277344 C 201.011719 220.976562 201.191406 221.6875 201.332031 222.40625 C 201.476562 223.125 201.582031 223.851562 201.65625 224.582031 C 201.726562 225.308594 201.761719 226.042969 201.761719 226.773438 Z M 201.761719 226.773438 " fill-opacity="1" fill-rule="nonzero"/><path fill="#d0c52d" d="M 212.957031 316.324219 C 212.957031 317.1875 212.917969 318.046875 212.832031 318.90625 C 212.746094 319.765625 212.621094 320.617188 212.453125 321.464844 C 212.285156 322.308594 212.074219 323.144531 211.824219 323.96875 C 211.574219 324.796875 211.285156 325.605469 210.953125 326.402344 C 210.625 327.199219 210.253906 327.980469 209.847656 328.742188 C 209.441406 329.5 209 330.242188 208.519531 330.957031 C 208.039062 331.675781 207.527344 332.367188 206.980469 333.035156 C 206.433594 333.699219 205.851562 334.339844 205.242188 334.949219 C 204.632812 335.558594 203.996094 336.136719 203.328125 336.683594 C 202.660156 337.230469 201.96875 337.746094 201.25 338.222656 C 200.535156 338.703125 199.792969 339.144531 199.035156 339.554688 C 198.273438 339.960938 197.492188 340.328125 196.695312 340.65625 C 195.898438 340.988281 195.089844 341.277344 194.261719 341.527344 C 193.4375 341.78125 192.601562 341.988281 191.753906 342.15625 C 190.910156 342.324219 190.054688 342.453125 189.199219 342.535156 C 188.339844 342.621094 187.476562 342.664062 186.617188 342.664062 C 185.753906 342.664062 184.890625 342.621094 184.035156 342.535156 C 183.175781 342.453125 182.324219 342.324219 181.476562 342.15625 C 180.628906 341.988281 179.792969 341.78125 178.96875 341.527344 C 178.144531 341.277344 177.332031 340.988281 176.535156 340.65625 C 175.738281 340.328125 174.957031 339.960938 174.199219 339.554688 C 173.4375 339.144531 172.699219 338.703125 171.980469 338.222656 C 171.261719 337.746094 170.570312 337.230469 169.902344 336.683594 C 169.238281 336.136719 168.597656 335.558594 167.988281 334.949219 C 167.378906 334.339844 166.800781 333.699219 166.253906 333.035156 C 165.703125 332.367188 165.191406 331.675781 164.710938 330.957031 C 164.234375 330.242188 163.789062 329.5 163.382812 328.742188 C 162.976562 327.980469 162.609375 327.199219 162.277344 326.402344 C 161.949219 325.605469 161.65625 324.796875 161.40625 323.96875 C 161.15625 323.144531 160.945312 322.308594 160.777344 321.464844 C 160.609375 320.617188 160.484375 319.765625 160.398438 318.90625 C 160.316406 318.046875 160.273438 317.1875 160.273438 316.324219 C 160.273438 315.460938 160.316406 314.601562 160.398438 313.742188 C 160.484375 312.882812 160.609375 312.03125 160.777344 311.1875 C 160.945312 310.339844 161.15625 309.503906 161.40625 308.679688 C 161.65625 307.855469 161.949219 307.042969 162.277344 306.246094 C 162.609375 305.449219 162.976562 304.667969 163.382812 303.910156 C 163.789062 303.148438 164.234375 302.410156 164.710938 301.691406 C 165.191406 300.976562 165.703125 300.28125 166.253906 299.617188 C 166.800781 298.949219 167.378906 298.3125 167.988281 297.699219 C 168.597656 297.089844 169.238281 296.511719 169.902344 295.964844 C 170.570312 295.417969 171.261719 294.90625 171.980469 294.425781 C 172.699219 293.945312 173.4375 293.503906 174.199219 293.097656 C 174.957031 292.691406 175.738281 292.320312 176.535156 291.992188 C 177.332031 291.660156 178.144531 291.371094 178.96875 291.121094 C 179.792969 290.871094 180.628906 290.660156 181.476562 290.492188 C 182.324219 290.324219 183.175781 290.199219 184.035156 290.113281 C 184.890625 290.027344 185.753906 289.988281 186.617188 289.988281 C 187.476562 289.988281 188.339844 290.027344 189.199219 290.113281 C 190.054688 290.199219 190.910156 290.324219 191.753906 290.492188 C 192.601562 290.660156 193.4375 290.871094 194.261719 291.121094 C 195.089844 291.371094 195.898438 291.660156 196.695312 291.992188 C 197.492188 292.320312 198.273438 292.691406 199.035156 293.097656 C 199.792969 293.503906 200.535156 293.945312 201.25 294.425781 C 201.96875 294.90625 202.660156 295.417969 203.328125 295.964844 C 203.996094 296.511719 204.632812 297.089844 205.242188 297.699219 C 205.851562 298.3125 206.433594 298.949219 206.980469 299.617188 C 207.527344 300.28125 208.039062 300.976562 208.519531 301.691406 C 209 302.410156 209.441406 303.148438 209.847656 303.910156 C 210.253906 304.667969 210.625 305.449219 210.953125 306.246094 C 211.285156 307.042969 211.574219 307.855469 211.824219 308.679688 C 212.074219 309.503906 212.285156 310.339844 212.453125 311.1875 C 212.621094 312.03125 212.746094 312.882812 212.832031 313.742188 C 212.917969 314.601562 212.957031 315.460938 212.957031 316.324219 Z M 212.957031 316.324219 " fill-opacity="1" fill-rule="nonzero"/><path fill="#d0c52d" d="M 100.339844 344.636719 C 100.339844 345.503906 100.257812 346.359375 100.089844 347.207031 C 99.917969 348.054688 99.671875 348.878906 99.339844 349.679688 C 99.007812 350.476562 98.601562 351.234375 98.121094 351.953125 C 97.640625 352.671875 97.09375 353.339844 96.484375 353.949219 C 95.871094 354.5625 95.207031 355.109375 94.488281 355.589844 C 93.769531 356.070312 93.007812 356.472656 92.210938 356.804688 C 91.410156 357.136719 90.589844 357.386719 89.738281 357.554688 C 88.890625 357.722656 88.035156 357.808594 87.171875 357.808594 C 86.304688 357.808594 85.449219 357.722656 84.601562 357.554688 C 83.753906 357.386719 82.929688 357.136719 82.128906 356.804688 C 81.332031 356.472656 80.570312 356.070312 79.851562 355.589844 C 79.132812 355.109375 78.46875 354.5625 77.855469 353.949219 C 77.246094 353.339844 76.699219 352.671875 76.21875 351.953125 C 75.738281 351.234375 75.332031 350.476562 75 349.679688 C 74.671875 348.878906 74.421875 348.054688 74.25 347.207031 C 74.082031 346.359375 74 345.503906 74 344.636719 C 74 343.773438 74.082031 342.917969 74.25 342.070312 C 74.421875 341.222656 74.671875 340.398438 75 339.597656 C 75.332031 338.800781 75.738281 338.039062 76.21875 337.320312 C 76.699219 336.601562 77.246094 335.9375 77.855469 335.328125 C 78.46875 334.714844 79.132812 334.167969 79.851562 333.6875 C 80.570312 333.207031 81.332031 332.800781 82.128906 332.472656 C 82.929688 332.140625 83.753906 331.890625 84.601562 331.722656 C 85.449219 331.554688 86.304688 331.46875 87.171875 331.46875 C 88.035156 331.46875 88.890625 331.554688 89.738281 331.722656 C 90.589844 331.890625 91.410156 332.140625 92.210938 332.472656 C 93.007812 332.800781 93.769531 333.207031 94.488281 333.6875 C 95.207031 334.167969 95.871094 334.714844 96.484375 335.328125 C 97.09375 335.9375 97.640625 336.601562 98.121094 337.320312 C 98.601562 338.039062 99.007812 338.800781 99.339844 339.597656 C 99.671875 340.398438 99.917969 341.222656 100.089844 342.070312 C 100.257812 342.917969 100.339844 343.773438 100.339844 344.636719 Z M 100.339844 344.636719 " fill-opacity="1" fill-rule="nonzero"/><path fill="#d0c52d" d="M 255.765625 249.160156 C 255.765625 249.941406 255.691406 250.710938 255.539062 251.472656 C 255.386719 252.238281 255.160156 252.980469 254.863281 253.699219 C 254.566406 254.417969 254.199219 255.101562 253.769531 255.746094 C 253.335938 256.394531 252.84375 256.992188 252.292969 257.542969 C 251.742188 258.09375 251.144531 258.585938 250.5 259.015625 C 249.851562 259.449219 249.167969 259.8125 248.449219 260.113281 C 247.730469 260.410156 246.988281 260.632812 246.226562 260.785156 C 245.460938 260.9375 244.691406 261.015625 243.914062 261.015625 C 243.132812 261.015625 242.363281 260.9375 241.597656 260.785156 C 240.835938 260.632812 240.09375 260.410156 239.375 260.113281 C 238.65625 259.8125 237.972656 259.449219 237.324219 259.015625 C 236.679688 258.585938 236.082031 258.09375 235.53125 257.542969 C 234.980469 256.992188 234.488281 256.394531 234.054688 255.746094 C 233.625 255.101562 233.257812 254.417969 232.960938 253.699219 C 232.664062 252.980469 232.4375 252.238281 232.285156 251.472656 C 232.132812 250.710938 232.058594 249.941406 232.058594 249.160156 C 232.058594 248.382812 232.132812 247.613281 232.285156 246.851562 C 232.4375 246.085938 232.664062 245.34375 232.960938 244.625 C 233.257812 243.90625 233.625 243.222656 234.054688 242.578125 C 234.488281 241.929688 234.980469 241.332031 235.53125 240.78125 C 236.082031 240.230469 236.679688 239.738281 237.324219 239.308594 C 237.972656 238.875 238.65625 238.511719 239.375 238.210938 C 240.09375 237.914062 240.835938 237.6875 241.597656 237.539062 C 242.363281 237.386719 243.132812 237.308594 243.914062 237.308594 C 244.691406 237.308594 245.460938 237.386719 246.226562 237.539062 C 246.988281 237.6875 247.730469 237.914062 248.449219 238.210938 C 249.167969 238.511719 249.851562 238.875 250.5 239.308594 C 251.144531 239.738281 251.742188 240.230469 252.292969 240.78125 C 252.84375 241.332031 253.335938 241.929688 253.769531 242.578125 C 254.199219 243.222656 254.566406 243.90625 254.863281 244.625 C 255.160156 245.34375 255.386719 246.085938 255.539062 246.851562 C 255.691406 247.613281 255.765625 248.382812 255.765625 249.160156 Z M 255.765625 249.160156 " fill-opacity="1" fill-rule="nonzero"/><path fill="#d0c52d" d="M 273.546875 294.59375 C 273.546875 295.179688 273.519531 295.757812 273.460938 296.339844 C 273.40625 296.917969 273.320312 297.492188 273.207031 298.0625 C 273.09375 298.636719 272.953125 299.199219 272.78125 299.757812 C 272.613281 300.3125 272.417969 300.859375 272.195312 301.398438 C 271.972656 301.9375 271.722656 302.460938 271.449219 302.976562 C 271.175781 303.488281 270.875 303.988281 270.550781 304.472656 C 270.226562 304.957031 269.882812 305.425781 269.511719 305.875 C 269.140625 306.324219 268.75 306.753906 268.339844 307.167969 C 267.929688 307.578125 267.496094 307.96875 267.046875 308.339844 C 266.597656 308.707031 266.128906 309.054688 265.644531 309.378906 C 265.160156 309.703125 264.664062 310 264.148438 310.273438 C 263.636719 310.550781 263.109375 310.796875 262.570312 311.019531 C 262.035156 311.242188 261.484375 311.4375 260.929688 311.609375 C 260.371094 311.777344 259.808594 311.917969 259.234375 312.03125 C 258.664062 312.144531 258.089844 312.230469 257.507812 312.289062 C 256.929688 312.34375 256.347656 312.375 255.765625 312.375 C 255.183594 312.375 254.601562 312.34375 254.023438 312.289062 C 253.445312 312.230469 252.867188 312.144531 252.296875 312.03125 C 251.726562 311.917969 251.164062 311.777344 250.605469 311.609375 C 250.046875 311.4375 249.5 311.242188 248.960938 311.019531 C 248.421875 310.796875 247.898438 310.550781 247.382812 310.273438 C 246.871094 310 246.371094 309.703125 245.886719 309.378906 C 245.402344 309.054688 244.9375 308.707031 244.484375 308.339844 C 244.035156 307.96875 243.605469 307.578125 243.191406 307.167969 C 242.78125 306.753906 242.390625 306.324219 242.019531 305.875 C 241.652344 305.425781 241.304688 304.957031 240.980469 304.472656 C 240.65625 303.988281 240.359375 303.488281 240.085938 302.976562 C 239.808594 302.460938 239.5625 301.9375 239.339844 301.398438 C 239.117188 300.859375 238.917969 300.3125 238.75 299.757812 C 238.582031 299.199219 238.441406 298.636719 238.328125 298.0625 C 238.214844 297.492188 238.128906 296.917969 238.070312 296.339844 C 238.011719 295.757812 237.984375 295.179688 237.984375 294.59375 C 237.984375 294.011719 238.011719 293.433594 238.070312 292.851562 C 238.128906 292.273438 238.214844 291.699219 238.328125 291.128906 C 238.441406 290.554688 238.582031 289.992188 238.75 289.433594 C 238.917969 288.878906 239.117188 288.328125 239.339844 287.792969 C 239.5625 287.253906 239.808594 286.726562 240.085938 286.214844 C 240.359375 285.703125 240.65625 285.203125 240.980469 284.71875 C 241.304688 284.234375 241.652344 283.765625 242.019531 283.316406 C 242.390625 282.867188 242.78125 282.4375 243.191406 282.023438 C 243.605469 281.613281 244.035156 281.222656 244.484375 280.851562 C 244.9375 280.484375 245.402344 280.136719 245.886719 279.8125 C 246.371094 279.488281 246.871094 279.191406 247.382812 278.917969 C 247.898438 278.640625 248.421875 278.394531 248.960938 278.171875 C 249.5 277.949219 250.046875 277.75 250.605469 277.582031 C 251.164062 277.414062 251.726562 277.273438 252.296875 277.160156 C 252.867188 277.046875 253.445312 276.960938 254.023438 276.902344 C 254.601562 276.847656 255.183594 276.816406 255.765625 276.816406 C 256.347656 276.816406 256.929688 276.847656 257.507812 276.902344 C 258.089844 276.960938 258.664062 277.046875 259.234375 277.160156 C 259.808594 277.273438 260.371094 277.414062 260.929688 277.582031 C 261.484375 277.75 262.035156 277.949219 262.570312 278.171875 C 263.109375 278.394531 263.636719 278.640625 264.148438 278.917969 C 264.664062 279.191406 265.160156 279.488281 265.644531 279.8125 C 266.128906 280.136719 266.597656 280.484375 267.046875 280.851562 C 267.496094 281.222656 267.929688 281.613281 268.339844 282.023438 C 268.75 282.4375 269.140625 282.867188 269.511719 283.316406 C 269.882812 283.765625 270.226562 284.234375 270.550781 284.71875 C 270.875 285.203125 271.175781 285.703125 271.449219 286.214844 C 271.722656 286.726562 271.972656 287.253906 272.195312 287.792969 C 272.417969 288.328125 272.613281 288.878906 272.78125 289.433594 C 272.953125 289.992188 273.09375 290.554688 273.207031 291.128906 C 273.320312 291.699219 273.40625 292.273438 273.460938 292.851562 C 273.519531 293.433594 273.546875 294.011719 273.546875 294.59375 Z M 273.546875 294.59375 " fill-opacity="1" fill-rule="nonzero"/><g clip-path="url(#aa6a5b6078)"><path fill="#000000" d="M 190.566406 645.554688 C 191.882812 646.210938 193.203125 646.871094 195.175781 646.871094 L 481 646.871094 C 486.269531 646.871094 490.878906 642.261719 490.878906 636.992188 L 490.878906 173.4375 C 490.878906 168.171875 486.269531 163.5625 481 163.5625 L 195.175781 163.5625 L 128.660156 157.636719 C 126.027344 157.636719 123.390625 158.292969 121.417969 160.269531 C 119.441406 162.246094 118.125 164.878906 118.125 167.511719 L 110.878906 607.363281 C 110.878906 611.3125 113.511719 615.265625 116.804688 616.582031 Z M 204.398438 183.316406 L 470.464844 183.316406 L 470.464844 627.117188 L 204.398438 627.117188 Z M 137.222656 178.046875 L 184.640625 182.65625 L 184.640625 622.507812 L 130.636719 600.777344 Z M 137.222656 178.046875 " fill-opacity="1" fill-rule="nonzero"/></g><path fill="#000000" d="M 430.289062 289.328125 C 430.289062 288.667969 430.289062 288.667969 430.289062 289.328125 C 430.289062 288.667969 430.289062 288.667969 430.289062 288.667969 C 430.289062 288.011719 430.289062 288.011719 429.632812 288.011719 C 429.632812 288.011719 429.632812 287.351562 428.972656 287.351562 C 428.972656 287.351562 428.972656 286.695312 428.316406 286.695312 C 428.316406 286.695312 427.65625 286.035156 427.65625 286.035156 C 427.65625 286.035156 426.996094 285.378906 426.996094 285.378906 C 426.996094 285.378906 426.339844 284.71875 426.339844 284.71875 C 426.339844 284.71875 425.679688 284.058594 425.679688 284.058594 C 425.679688 284.058594 425.023438 284.058594 425.023438 283.402344 C 425.023438 283.402344 424.363281 282.742188 424.363281 282.742188 C 424.363281 282.742188 423.703125 282.742188 423.703125 282.742188 C 423.046875 282.742188 423.046875 282.742188 422.386719 282.742188 C 422.386719 282.742188 421.730469 282.742188 421.730469 282.742188 C 421.070312 282.742188 421.070312 282.742188 420.410156 282.742188 C 420.410156 282.742188 419.753906 282.742188 419.753906 282.742188 C 419.753906 282.742188 419.09375 282.742188 419.09375 282.742188 C 419.09375 282.742188 419.09375 282.742188 418.4375 282.742188 C 418.4375 282.742188 418.4375 282.742188 417.777344 282.742188 C 401.972656 286.035156 388.800781 290.644531 377.605469 295.914062 C 377.605469 295.253906 377.605469 295.253906 377.605469 294.597656 C 377.605469 293.9375 377.605469 292.621094 377.605469 291.960938 C 377.605469 290.644531 377.605469 289.988281 377.605469 288.667969 C 377.605469 288.011719 377.605469 286.695312 376.945312 286.035156 C 376.945312 284.71875 376.945312 284.058594 376.285156 282.742188 C 376.285156 281.425781 375.628906 280.769531 375.628906 279.453125 C 375.628906 278.132812 374.96875 277.476562 374.96875 276.160156 C 374.3125 274.84375 374.3125 273.523438 373.652344 272.207031 C 372.992188 270.890625 372.992188 270.234375 372.335938 268.914062 C 371.675781 267.597656 371.019531 266.28125 370.359375 264.964844 C 369.699219 263.648438 369.699219 262.988281 369.042969 261.671875 C 368.382812 260.355469 367.726562 258.378906 366.40625 257.0625 C 365.75 255.746094 365.089844 255.089844 364.433594 253.769531 C 363.773438 251.796875 362.457031 250.480469 361.140625 248.503906 C 360.480469 247.1875 359.824219 246.527344 359.164062 245.210938 C 357.847656 243.234375 356.53125 241.261719 355.210938 239.285156 C 354.554688 238.625 353.894531 237.308594 353.238281 236.652344 C 351.261719 234.019531 348.625 230.726562 345.992188 227.433594 C 343.359375 224.140625 340.722656 220.847656 337.429688 217.554688 C 335.453125 215.582031 332.820312 214.265625 330.1875 214.265625 C 327.550781 214.265625 324.917969 215.582031 322.941406 217.554688 C 299.234375 243.894531 286.0625 267.597656 283.425781 288.667969 C 272.230469 283.402344 259.058594 279.453125 243.914062 275.5 C 243.914062 275.5 243.253906 275.5 243.253906 275.5 C 243.253906 275.5 242.59375 275.5 242.59375 275.5 C 237.328125 274.84375 232.058594 278.792969 231.398438 284.058594 C 224.8125 331.46875 232.058594 363.734375 251.816406 380.855469 C 263.667969 390.730469 277.5 393.363281 288.039062 393.363281 C 297.257812 393.363281 305.160156 391.390625 307.792969 390.730469 C 309.769531 390.070312 312.40625 389.414062 313.722656 387.4375 C 314.378906 386.78125 326.894531 370.976562 328.210938 350.566406 C 328.871094 350.566406 329.527344 350.566406 329.527344 350.566406 C 330.1875 350.566406 330.84375 350.566406 330.84375 350.566406 C 328.871094 374.269531 344.675781 394.023438 345.332031 394.679688 C 345.332031 394.679688 345.332031 394.679688 345.992188 395.339844 C 345.992188 395.339844 346.652344 396 346.652344 396 C 346.652344 396 347.308594 396.65625 347.308594 396.65625 C 347.308594 396.65625 347.96875 397.316406 347.96875 397.316406 C 348.625 397.316406 348.625 397.972656 349.285156 397.972656 C 349.285156 397.972656 349.285156 397.972656 349.945312 397.972656 C 350.601562 397.972656 359.164062 401.265625 371.019531 401.265625 C 382.214844 401.265625 396.042969 398.632812 407.238281 388.753906 C 429.632812 369.660156 436.875 336.738281 430.289062 289.328125 Z M 306.476562 361.101562 L 286.71875 334.101562 C 283.425781 329.492188 277.5 328.835938 272.890625 332.128906 C 268.28125 335.421875 267.621094 341.347656 270.914062 345.957031 L 289.355469 371.636719 C 282.109375 371.636719 272.890625 370.316406 264.988281 363.734375 C 251.816406 352.539062 246.546875 329.492188 249.839844 295.914062 C 264.988281 299.863281 276.839844 305.132812 286.71875 311.058594 C 286.71875 311.714844 286.71875 311.714844 287.378906 312.375 C 291.328125 322.910156 298.574219 332.128906 309.113281 338.710938 C 311.085938 346.613281 309.113281 354.515625 306.476562 361.101562 Z M 343.359375 320.933594 C 342.699219 321.59375 341.382812 322.25 340.722656 322.910156 L 340.722656 281.425781 C 340.722656 276.160156 336.113281 271.550781 330.84375 271.550781 C 325.574219 271.550781 320.964844 276.160156 320.964844 281.425781 L 320.964844 322.25 C 312.40625 316.984375 307.136719 309.738281 305.160156 301.839844 C 300.550781 285.378906 309.769531 263.648438 330.84375 237.96875 C 349.945312 261.015625 366.40625 289.328125 353.238281 310.398438 C 351.261719 314.347656 347.96875 318.300781 343.359375 320.933594 Z M 396.703125 370.976562 C 389.457031 376.902344 380.238281 378.878906 372.335938 378.878906 L 396.703125 345.957031 C 399.996094 341.347656 398.679688 335.421875 394.726562 332.128906 C 390.117188 328.835938 384.191406 330.152344 380.898438 334.101562 L 355.871094 368.34375 C 351.917969 359.78125 349.945312 347.273438 357.1875 335.421875 C 357.847656 334.761719 359.164062 334.101562 359.820312 333.445312 C 363.773438 330.152344 366.40625 326.859375 369.042969 322.910156 C 378.921875 315.007812 393.410156 308.421875 411.851562 303.8125 C 415.144531 336.738281 409.875 360.441406 396.703125 370.976562 Z M 396.703125 370.976562 " fill-opacity="1" fill-rule="nonzero"/><g fill="#000000" fill-opacity="1"><g transform="translate(182.699281, 51.728969)"><g/></g></g></svg>